<?xml version="1.0" encoding="UTF-8"?>
<svg version="1.1" xmlns="http://www.w3.org/2000/svg" width="425" height="425">
<path d="M0 0 C3.34325981 1.04761547 6.07222277 2.60534604 9.1171875 4.3359375 C15.26225438 7.7653792 20.97223776 8.66259866 27.9296875 9.3359375 C47.67460761 11.34854961 75.04799271 20.82543016 88.8671875 35.8984375 C96.79673314 45.98860531 103.6675893 56.94277698 104.8671875 69.8984375 C105.5271875 70.2284375 106.1871875 70.5584375 106.8671875 70.8984375 C106.81498047 72.05472656 106.81498047 72.05472656 106.76171875 73.234375 C106.73464844 74.23726563 106.70757812 75.24015625 106.6796875 76.2734375 C106.64488281 77.27117187 106.61007812 78.26890625 106.57421875 79.296875 C106.67089844 80.15539062 106.76757812 81.01390625 106.8671875 81.8984375 C107.8571875 82.5584375 108.8471875 83.2184375 109.8671875 83.8984375 C110.5546875 87.0234375 110.5546875 87.0234375 110.8671875 89.8984375 C111.5271875 89.8984375 112.1871875 89.8984375 112.8671875 89.8984375 C113.06054688 90.49011719 113.25390625 91.08179687 113.453125 91.69140625 C115.13031598 96.79005649 115.13031598 96.79005649 117.1171875 101.7734375 C117.8671875 103.8984375 117.8671875 103.8984375 116.8671875 106.8984375 C117.60205883 109.32502298 118.40215098 111.67251471 119.26318359 114.05322266 C122.13299389 122.61664816 122.6030796 130.4558259 122.53125 139.421875 C122.53463264 140.94447209 122.53949715 142.46706652 122.54574585 143.98965454 C122.55303603 147.14782967 122.54266202 150.30528834 122.51904297 153.46337891 C122.49041007 157.48466464 122.50709843 161.50429174 122.53690529 165.52551842 C122.55506823 168.65711738 122.54918206 171.78832965 122.53626633 174.91994095 C122.53296468 176.40211822 122.53690335 177.88433223 122.54866409 179.36646652 C122.59792027 187.3062649 122.26240094 193.87150717 118.04745483 200.83047485 C116.80175603 203.01308088 116.2596826 204.88673588 115.7421875 207.3359375 C114.57348121 212.0942417 114.57348121 212.0942417 111.8671875 213.8984375 C111.2071875 213.8984375 110.5471875 213.8984375 109.8671875 213.8984375 C109.8671875 202.6784375 109.8671875 191.4584375 109.8671875 179.8984375 C104.04537087 192.1420618 104.04537087 192.1420618 98.6796875 204.5859375 C95.28325201 212.51398076 92.39906761 216.71369928 84.24609375 220.0390625 C78.87719151 221.97856741 73.60214422 223.4579806 67.9921875 224.5234375 C66.95964844 224.72453125 66.95964844 224.72453125 65.90625 224.9296875 C64.22724995 225.25615973 62.54731214 225.57780303 60.8671875 225.8984375 C61.95927231 233.54303119 64.54442456 238.29116161 69.8671875 243.8984375 C70.8571875 244.5584375 71.8471875 245.2184375 72.8671875 245.8984375 C73.5625 247.88671875 73.5625 247.88671875 73.9921875 250.2109375 C74.14429688 251.01660156 74.29640625 251.82226562 74.453125 252.65234375 C74.58976563 253.39355469 74.72640625 254.13476562 74.8671875 254.8984375 C75.1146875 255.8059375 75.3621875 256.7134375 75.6171875 257.6484375 C75.95374286 260.67743577 75.45252062 262.30425604 73.8671875 264.8984375 C71.2421875 265.7109375 71.2421875 265.7109375 68.8671875 265.8984375 C67.34358693 263.28655081 66.57901805 260.82315325 65.9296875 257.8984375 C65.16028238 254.58691785 64.08648145 252.52123945 61.8671875 249.8984375 C61.8671875 249.2384375 61.8671875 248.5784375 61.8671875 247.8984375 C61.09375 247.5271875 61.09375 247.5271875 60.3046875 247.1484375 C57.09534599 245.50262134 53.99133086 243.7008279 50.8671875 241.8984375 C50.8671875 241.2384375 50.8671875 240.5784375 50.8671875 239.8984375 C49.8771875 239.5684375 48.8871875 239.2384375 47.8671875 238.8984375 C47.2071875 237.9084375 46.5471875 236.9184375 45.8671875 235.8984375 C41.88350954 235.37229135 39.5715567 235.53094053 35.9921875 237.3984375 C33.72822315 240.06192497 33.57505642 240.71892845 33.3046875 244.0234375 C33.1603125 245.3021875 33.0159375 246.5809375 32.8671875 247.8984375 C28.95891092 250.83714163 23.43085749 250.9758035 18.7109375 251.75390625 C15.07474856 252.38481217 12.12006773 253.18905254 8.8671875 254.8984375 C3.15528867 255.73938628 -1.70913557 254.61807699 -7.046875 252.6328125 C-9.70088154 251.69844316 -12.34768759 251.2555048 -15.1328125 250.8984375 C-15.1328125 250.2384375 -15.1328125 249.5784375 -15.1328125 248.8984375 C-18.1028125 248.5684375 -21.0728125 248.2384375 -24.1328125 247.8984375 C-24.3596875 247.2384375 -24.5865625 246.5784375 -24.8203125 245.8984375 C-26.27751743 242.56768338 -28.10776625 239.69352186 -30.109375 236.66796875 C-31.1328125 234.8984375 -31.1328125 234.8984375 -31.1328125 232.8984375 C-31.7928125 232.8984375 -32.4528125 232.8984375 -33.1328125 232.8984375 C-33.1328125 232.2384375 -33.1328125 231.5784375 -33.1328125 230.8984375 C-37.60302747 229.64464374 -37.60302747 229.64464374 -41.8984375 230.875 C-44.07354007 232.68054631 -45.85985037 234.35251323 -47.1328125 236.8984375 C-47.7928125 236.8984375 -48.4528125 236.8984375 -49.1328125 236.8984375 C-49.1328125 237.5584375 -49.1328125 238.2184375 -49.1328125 238.8984375 C-49.7928125 239.2696875 -50.4528125 239.6409375 -51.1328125 240.0234375 C-53.58244044 241.88428955 -53.58244044 241.88428955 -53.3203125 245.7734375 C-53.26423828 246.82144531 -53.26423828 246.82144531 -53.20703125 247.890625 C-53.11650462 250.33960847 -53.54032184 252.52847488 -54.1328125 254.8984375 C-51.1628125 255.2284375 -48.1928125 255.5584375 -45.1328125 255.8984375 C-45.1328125 256.5584375 -45.1328125 257.2184375 -45.1328125 257.8984375 C-45.7928125 257.8984375 -46.4528125 257.8984375 -47.1328125 257.8984375 C-47.4628125 259.5484375 -47.7928125 261.1984375 -48.1328125 262.8984375 C-42.43194683 263.28713289 -37.59594281 262.14793549 -32.09765625 260.65234375 C-26.76643846 259.29671129 -22.69274194 258.8805738 -17.234375 259.71875 C-14.81795411 260.01015383 -14.81795411 260.01015383 -11.1953125 259.2734375 C-4.42518677 258.32656677 2.32441537 260.19879953 8.94628906 261.52270508 C11.57762378 262.03740057 14.22116069 262.4665072 16.8671875 262.8984375 C18.82620326 263.24880977 20.78456974 263.60283669 22.7421875 263.9609375 C23.70898438 264.13753906 24.67578125 264.31414062 25.671875 264.49609375 C26.39632812 264.62886719 27.12078125 264.76164062 27.8671875 264.8984375 C27.8671875 264.2384375 27.8671875 263.5784375 27.8671875 262.8984375 C28.55683594 263.09179688 29.24648437 263.28515625 29.95703125 263.484375 C35.89890084 265.13081897 41.83689733 266.61329369 47.8671875 267.8984375 C47.5371875 266.2484375 47.2071875 264.5984375 46.8671875 262.8984375 C48.1871875 262.8984375 49.5071875 262.8984375 50.8671875 262.8984375 C51.1971875 261.9084375 51.5271875 260.9184375 51.8671875 259.8984375 C53.1871875 259.8984375 54.5071875 259.8984375 55.8671875 259.8984375 C55.8671875 260.5584375 55.8671875 261.2184375 55.8671875 261.8984375 C56.9809375 261.3828125 58.0946875 260.8671875 59.2421875 260.3359375 C60.4384375 259.8615625 61.6346875 259.3871875 62.8671875 258.8984375 C63.5271875 259.2284375 64.1871875 259.5584375 64.8671875 259.8984375 C64.8671875 260.5584375 64.8671875 261.2184375 64.8671875 261.8984375 C64.2071875 261.8984375 63.5471875 261.8984375 62.8671875 261.8984375 C63.09535156 262.5996875 63.32351563 263.3009375 63.55859375 264.0234375 C65.4071029 270.12434662 66.42645841 274.66135385 64.8671875 280.8984375 C63.5546875 282.9609375 63.5546875 282.9609375 61.8671875 283.8984375 C59.8046875 283.7734375 59.8046875 283.7734375 57.8671875 282.8984375 C56.8771875 281.4134375 56.8771875 281.4134375 55.8671875 279.8984375 C55.0215625 280.2078125 54.1759375 280.5171875 53.3046875 280.8359375 C46.49896782 282.93952358 39.92040899 283.02616183 32.8671875 282.8984375 C32.5371875 281.9084375 32.2071875 280.9184375 31.8671875 279.8984375 C33.3046875 277.7109375 33.3046875 277.7109375 34.8671875 275.8984375 C33.90055001 273.79632053 33.90055001 273.79632053 31.8671875 271.8984375 C29.19325292 271.2755933 26.6169133 271.12018958 23.8671875 270.8984375 C23.5371875 270.5684375 23.2071875 270.2384375 22.8671875 269.8984375 C20.99606475 269.8984375 19.12483603 269.90281598 17.25390625 269.9296875 C13.87093004 269.88539321 10.54791288 269.48714121 7.1875 269.1171875 C4.71634559 268.84759672 4.71634559 268.84759672 1.6171875 268.8984375 C-1.39786871 268.8984375 -4.16901477 268.42533487 -7.1328125 267.8984375 C-8.1228125 267.8984375 -9.1128125 267.8984375 -10.1328125 267.8984375 C-10.1328125 268.5584375 -10.1328125 269.2184375 -10.1328125 269.8984375 C-11.1228125 269.8984375 -12.1128125 269.8984375 -13.1328125 269.8984375 C-13.1328125 269.2384375 -13.1328125 268.5784375 -13.1328125 267.8984375 C-16.57074589 268.07973565 -16.57074589 268.07973565 -20.1328125 268.8984375 C-21.64575538 270.83440782 -21.64575538 270.83440782 -22.1328125 272.8984375 C-22.6690625 272.2384375 -23.2053125 271.5784375 -23.7578125 270.8984375 C-26.03239842 268.58818951 -26.03239842 268.58818951 -29.3828125 268.6484375 C-30.2903125 268.7309375 -31.1978125 268.8134375 -32.1328125 268.8984375 C-32.4628125 270.5484375 -32.7928125 272.1984375 -33.1328125 273.8984375 C-34.4528125 273.8984375 -35.7728125 273.8984375 -37.1328125 273.8984375 C-36.8028125 275.8784375 -36.4728125 277.8584375 -36.1328125 279.8984375 C-39.6845897 281.14613441 -41.89266014 280.61888052 -45.4453125 279.5234375 C-49.7004625 278.27427148 -53.73048167 277.38758537 -58.1328125 276.8984375 C-58.4628125 277.5584375 -58.7928125 278.2184375 -59.1328125 278.8984375 C-60.4528125 278.8984375 -61.7728125 278.8984375 -63.1328125 278.8984375 C-63.4628125 278.2384375 -63.7928125 277.5784375 -64.1328125 276.8984375 C-64.79410156 276.62 -65.45539063 276.3415625 -66.13671875 276.0546875 C-68.1328125 274.8984375 -68.1328125 274.8984375 -68.78515625 272.8046875 C-68.87925781 272.010625 -68.97335938 271.2165625 -69.0703125 270.3984375 C-69.47066365 267.9992947 -69.47066365 267.9992947 -70.1328125 265.8984375 C-72.30648324 264.36131271 -72.30648324 264.36131271 -75.1328125 263.8984375 C-80.98400667 261.84538691 -83.20838253 260.16241145 -86.1328125 254.8984375 C-83.64350004 248.56200577 -76.88819114 245.03192143 -71.1328125 241.8984375 C-69.78909798 241.39069805 -68.43461993 240.91041863 -67.0703125 240.4609375 C-61.44219529 238.51829349 -57.40056452 234.80006553 -54.1328125 229.8984375 C-53.4728125 229.8984375 -52.8128125 229.8984375 -52.1328125 229.8984375 C-51.1428125 225.9384375 -50.1528125 221.9784375 -49.1328125 217.8984375 C-54.48700216 215.88432227 -59.74622822 215.24637429 -65.38671875 214.6875 C-72.09830589 213.951636 -72.09830589 213.951636 -75.1328125 211.8984375 C-75.4628125 211.2384375 -75.7928125 210.5784375 -76.1328125 209.8984375 C-77.86536539 209.14843977 -79.6193988 208.44768392 -81.3828125 207.7734375 C-87.10495939 205.23108467 -89.8107599 202.69854291 -92.1328125 196.8984375 C-92.63369457 195.15452872 -93.11263029 193.40417885 -93.5703125 191.6484375 C-94.60134662 187.77909683 -94.89520069 187.08755711 -98.1953125 184.4609375 C-99.1646875 183.9453125 -100.1340625 183.4296875 -101.1328125 182.8984375 C-103.1328125 179.8984375 -103.1328125 179.8984375 -103.1328125 176.8984375 C-100.1628125 175.9084375 -100.1628125 175.9084375 -97.1328125 174.8984375 C-97.7928125 174.5684375 -98.4528125 174.2384375 -99.1328125 173.8984375 C-99.1328125 173.2384375 -99.1328125 172.5784375 -99.1328125 171.8984375 C-98.4728125 171.8984375 -97.8128125 171.8984375 -97.1328125 171.8984375 C-97.6278125 168.4334375 -97.6278125 168.4334375 -98.1328125 164.8984375 C-98.7928125 164.8984375 -99.4528125 164.8984375 -100.1328125 164.8984375 C-100.7928125 162.5884375 -101.4528125 160.2784375 -102.1328125 157.8984375 C-102.8546875 158.2078125 -103.5765625 158.5171875 -104.3203125 158.8359375 C-106.93588559 159.82404289 -109.38400232 160.4272129 -112.1328125 160.8984375 C-111.1328125 157.8984375 -111.1328125 157.8984375 -108.1953125 156.2109375 C-104.03504797 153.06951327 -103.97158186 150.93105368 -103.1328125 145.8984375 C-101.9159375 145.7128125 -100.6990625 145.5271875 -99.4453125 145.3359375 C-95.87140852 144.47392193 -94.44197888 143.4766315 -92.4453125 140.3984375 C-92.06632812 139.77839844 -91.68734375 139.15835938 -91.296875 138.51953125 C-89.65445765 136.23227218 -87.80565804 135.58574064 -85.1328125 134.8984375 C-85.1328125 134.2384375 -85.1328125 133.5784375 -85.1328125 132.8984375 C-83.40755208 131.921875 -81.68229167 130.9453125 -79.95703125 129.96875 C-78.31298961 129.00415169 -76.71880662 127.95576691 -75.1328125 126.8984375 C-72.87109375 126.703125 -72.87109375 126.703125 -70.4453125 126.7734375 C-69.63707031 126.79148437 -68.82882813 126.80953125 -67.99609375 126.828125 C-67.38121094 126.85132813 -66.76632813 126.87453125 -66.1328125 126.8984375 C-65.8028125 127.5584375 -65.4728125 128.2184375 -65.1328125 128.8984375 C-64.8028125 128.2384375 -64.4728125 127.5784375 -64.1328125 126.8984375 C-63.4728125 126.8984375 -62.8128125 126.8984375 -62.1328125 126.8984375 C-62.1328125 127.5584375 -62.1328125 128.2184375 -62.1328125 128.8984375 C-61.1428125 128.5684375 -60.1528125 128.2384375 -59.1328125 127.8984375 C-54.97525302 127.51758936 -50.8035514 127.38568913 -46.6328125 127.2109375 C-45.47910156 127.15099609 -44.32539063 127.09105469 -43.13671875 127.02929688 C-42.03199219 126.98224609 -40.92726563 126.93519531 -39.7890625 126.88671875 C-38.77650391 126.84071533 -37.76394531 126.79471191 -36.72070312 126.74731445 C-34.1328125 126.8984375 -34.1328125 126.8984375 -31.1328125 128.8984375 C-30.8028125 128.2384375 -30.4728125 127.5784375 -30.1328125 126.8984375 C-27.1328125 127.8984375 -27.1328125 127.8984375 -26.1328125 129.8984375 C-23.96446164 130.99964805 -23.96446164 130.99964805 -21.3828125 131.9609375 C-20.52171875 132.30253906 -19.660625 132.64414063 -18.7734375 132.99609375 C-16.23367755 133.8639703 -13.77371837 134.43770392 -11.1328125 134.8984375 C-11.1328125 135.5584375 -11.1328125 136.2184375 -11.1328125 136.8984375 C-10.1840625 137.1665625 -9.2353125 137.4346875 -8.2578125 137.7109375 C-5.1328125 138.8984375 -5.1328125 138.8984375 -3.1328125 141.8984375 C-1.08277295 143.09076363 -1.08277295 143.09076363 0.8671875 143.8984375 C0.5371875 144.8884375 0.2071875 145.8784375 -0.1328125 146.8984375 C0.9396875 146.2178125 2.0121875 145.5371875 3.1171875 144.8359375 C6.54751537 142.87179816 6.54751537 142.87179816 9.1171875 143.0859375 C9.6946875 143.3540625 10.2721875 143.6221875 10.8671875 143.8984375 C14.00068482 144.94293661 14.85687006 144.83267395 17.8671875 143.8984375 C17.5371875 142.9084375 17.2071875 141.9184375 16.8671875 140.8984375 C17.5271875 140.8984375 18.1871875 140.8984375 18.8671875 140.8984375 C18.8671875 140.2384375 18.8671875 139.5784375 18.8671875 138.8984375 C19.5271875 138.8984375 20.1871875 138.8984375 20.8671875 138.8984375 C20.9290625 138.1146875 20.9909375 137.3309375 21.0546875 136.5234375 C21.8671875 133.8984375 21.8671875 133.8984375 24.2421875 132.5859375 C26.8671875 131.8984375 26.8671875 131.8984375 29.8671875 131.8984375 C30.1971875 132.8884375 30.5271875 133.8784375 30.8671875 134.8984375 C31.4653125 134.2384375 32.0634375 133.5784375 32.6796875 132.8984375 C34.8671875 130.8984375 34.8671875 130.8984375 37.8671875 130.8984375 C38.1971875 130.2384375 38.5271875 129.5784375 38.8671875 128.8984375 C39.8571875 129.5584375 40.8471875 130.2184375 41.8671875 130.8984375 C42.8571875 130.5684375 43.8471875 130.2384375 44.8671875 129.8984375 C49.21861687 129.84009897 53.55455007 130.06289489 57.89868164 130.29296875 C59.32645664 130.36281348 60.75497104 130.41899393 62.18383789 130.4609375 C70.24170635 130.69993812 76.61330115 130.99634856 82.42895508 137.14526367 C82.90357178 137.72381104 83.37818848 138.3023584 83.8671875 138.8984375 C84.6921875 139.8265625 85.5171875 140.7546875 86.3671875 141.7109375 C87.8671875 143.8984375 87.8671875 143.8984375 87.8671875 145.8984375 C88.5271875 145.8984375 89.1871875 145.8984375 89.8671875 145.8984375 C90.70832921 147.33138248 91.53984437 148.76998155 92.3671875 150.2109375 C92.83125 151.01144531 93.2953125 151.81195313 93.7734375 152.63671875 C94.8671875 154.8984375 94.8671875 154.8984375 94.8671875 157.8984375 C84.30910094 157.11939422 84.30910094 157.11939422 79.8671875 154.8984375 C79.8671875 154.2384375 79.8671875 153.5784375 79.8671875 152.8984375 C78.536875 152.74375 78.536875 152.74375 77.1796875 152.5859375 C73.8671875 151.8984375 73.8671875 151.8984375 71.5546875 150.2734375 C67.66993639 148.28589042 64.01509413 148.67115427 59.8671875 149.8984375 C58.8386513 150.86906271 57.83425428 151.86655483 56.8671875 152.8984375 C57.84437744 153.04877441 57.84437744 153.04877441 58.84130859 153.20214844 C60.82600911 153.50748698 62.81070964 153.81282552 64.79541016 154.11816406 C65.93284668 154.2931543 67.0702832 154.46814453 68.2421875 154.6484375 C71.85611979 155.20442708 75.47005208 155.76041667 79.08398438 156.31640625 C80.33244141 156.50847656 81.58089844 156.70054687 82.8671875 156.8984375 C87.7421875 157.6484375 92.6171875 158.3984375 97.4921875 159.1484375 C98.62962402 159.32342773 99.76706055 159.49841797 100.93896484 159.67871094 C103.58170573 160.08528646 106.22444661 160.49186198 108.8671875 160.8984375 C107.65426618 155.81307013 106.21929227 150.96273712 104.4921875 146.0234375 C101.68740795 137.60392588 100.49442676 128.99536893 99.38720703 120.21142578 C98.10924802 110.6709758 95.6332508 102.71465664 89.8671875 94.8984375 C89.43470703 94.30611328 89.00222656 93.71378906 88.55664062 93.10351562 C85.04983081 88.32674999 81.45675017 83.61317621 77.8671875 78.8984375 C77.09117187 77.87878906 76.31515625 76.85914062 75.515625 75.80859375 C74.84789062 74.95136719 74.18015625 74.09414062 73.4921875 73.2109375 C72.92757812 72.48519531 72.36296875 71.75945312 71.78125 71.01171875 C67.28758493 66.05034568 61.86533039 62.42104076 56.3046875 58.7734375 C55.65822266 58.34417969 55.01175781 57.91492188 54.34570312 57.47265625 C53.08643523 56.63997656 51.8224722 55.81434507 50.5534668 54.99658203 C49.17177469 54.09679181 47.81946934 53.15202391 46.4765625 52.1953125 C42.67635501 50.30658662 38.85604265 49.85175261 34.6796875 49.2734375 C33.47989258 49.09167969 33.47989258 49.09167969 32.25585938 48.90625 C6.7092228 45.13068283 -15.65667811 45.55828368 -38.06640625 59.7265625 C-40.1328125 60.8984375 -40.1328125 60.8984375 -42.1328125 60.8984375 C-42.4628125 61.8884375 -42.7928125 62.8784375 -43.1328125 63.8984375 C-46.09299616 64.69204433 -48.93653604 65.30589841 -51.9453125 65.8359375 C-57.60255504 66.90993128 -62.9799231 68.04039913 -68.3828125 70.0859375 C-74.11946537 72.16244424 -79.65307566 72.45844476 -85.6875 72.625 C-89.14290821 72.89923875 -91.90694727 73.66530859 -95.1328125 74.8984375 C-95.1328125 75.5584375 -95.1328125 76.2184375 -95.1328125 76.8984375 C-95.7928125 76.8984375 -96.4528125 76.8984375 -97.1328125 76.8984375 C-97.41125 77.8884375 -97.41125 77.8884375 -97.6953125 78.8984375 C-99.06914434 81.76556482 -100.39333892 83.44615822 -102.5078125 85.7734375 C-111.42469836 95.68724227 -114.59114083 106.50260105 -114.3203125 119.6484375 C-114.39564633 129.6240197 -116.22749675 135.78890907 -121.96875 143.84375 C-126.39425527 150.09058235 -127.43568167 156.3085406 -127.82421875 163.83203125 C-128.1328125 165.8984375 -128.1328125 165.8984375 -130.1328125 167.8984375 C-124.49289139 166.73155727 -120.73797519 165.35230951 -116.1328125 161.8984375 C-115.4728125 162.2284375 -114.8128125 162.5584375 -114.1328125 162.8984375 C-114.7928125 163.5584375 -115.4528125 164.2184375 -116.1328125 164.8984375 C-116.1328125 166.5484375 -116.1328125 168.1984375 -116.1328125 169.8984375 C-119.7628125 170.2284375 -123.3928125 170.5584375 -127.1328125 170.8984375 C-127.12495728 172.35866333 -127.12495728 172.35866333 -127.11694336 173.84838867 C-127.09879133 177.4732165 -127.08734327 181.09804033 -127.07788086 184.72290039 C-127.07286394 186.28931352 -127.06604888 187.855722 -127.05737305 189.42211914 C-127.04519156 191.67855989 -127.03955769 193.93493852 -127.03515625 196.19140625 C-127.02999496 196.88743454 -127.02483368 197.58346283 -127.01951599 198.30058289 C-127.01909704 201.96313902 -127.26133155 205.33712608 -128.1328125 208.8984375 C-131.92870116 208.35616769 -133.60493243 206.69716187 -136.1328125 203.8984375 C-136.1328125 204.5584375 -136.1328125 205.2184375 -136.1328125 205.8984375 C-137.1228125 205.5684375 -138.1128125 205.2384375 -139.1328125 204.8984375 C-139.1328125 204.2384375 -139.1328125 203.5784375 -139.1328125 202.8984375 C-141.9752979 201.32570182 -141.9752979 201.32570182 -145.1328125 200.8984375 C-147.57591363 202.92380631 -149.48116109 205.19199313 -151.1328125 207.8984375 C-151.39325327 211.46228269 -151.39325327 211.46228269 -151.14453125 213.765625 C-151.12292203 217.6985022 -152.72301658 221.27324799 -154.1328125 224.8984375 C-154.4628125 224.8984375 -154.7928125 224.8984375 -155.1328125 224.8984375 C-155.32873711 221.58637866 -155.51313996 218.27377896 -155.6953125 214.9609375 C-155.75138672 214.01541016 -155.80746094 213.06988281 -155.86523438 212.09570312 C-155.91357422 211.19658203 -155.96191406 210.29746094 -156.01171875 209.37109375 C-156.0588501 208.53843994 -156.10598145 207.70578613 -156.15454102 206.84790039 C-156.1328125 204.8984375 -156.1328125 204.8984375 -155.1328125 203.8984375 C-154.7396477 202.21959512 -154.39195798 200.52993705 -154.0703125 198.8359375 C-153.89371094 197.91683594 -153.71710938 196.99773437 -153.53515625 196.05078125 C-153.40238281 195.34050781 -153.26960938 194.63023437 -153.1328125 193.8984375 C-150.1328125 192.8984375 -150.1328125 192.8984375 -147.1328125 193.8984375 C-146.8028125 194.5584375 -146.4728125 195.2184375 -146.1328125 195.8984375 C-144.4828125 195.8984375 -142.8328125 195.8984375 -141.1328125 195.8984375 C-141.4628125 193.9184375 -141.7928125 191.9384375 -142.1328125 189.8984375 C-142.7928125 189.8984375 -143.4528125 189.8984375 -144.1328125 189.8984375 C-144.1328125 188.9084375 -144.1328125 187.9184375 -144.1328125 186.8984375 C-145.1228125 186.5684375 -146.1128125 186.2384375 -147.1328125 185.8984375 C-149.79101942 178.68457368 -149.43887644 171.2466775 -149.43359375 163.64453125 C-149.43749155 162.25700251 -149.44182841 160.86947494 -149.44657898 159.48194885 C-149.4540118 156.57964203 -149.45377346 153.67745687 -149.44848633 150.77514648 C-149.4427257 147.09976726 -149.45955367 143.42489759 -149.482831 139.74960232 C-149.49774785 136.88295191 -149.49841554 134.01641877 -149.49532127 131.1497364 C-149.49606837 129.14996737 -149.5098069 127.15021623 -149.52400208 125.15049744 C-149.4785412 115.99544186 -148.14648233 107.7854736 -146.1328125 98.8984375 C-145.73341826 96.8366241 -145.33698809 94.77423111 -144.9453125 92.7109375 C-142.95810539 84.13175841 -139.38615911 76.07868731 -135.99951172 67.9765625 C-135.01950363 65.62675156 -134.069152 63.2659695 -133.1328125 60.8984375 C-132.4728125 60.8984375 -131.8128125 60.8984375 -131.1328125 60.8984375 C-130.8646875 60.3209375 -130.5965625 59.7434375 -130.3203125 59.1484375 C-129.10352061 56.84293707 -127.82947371 54.87787558 -126.1328125 52.8984375 C-125.4728125 52.8984375 -124.8128125 52.8984375 -124.1328125 52.8984375 C-123.9059375 52.3415625 -123.6790625 51.7846875 -123.4453125 51.2109375 C-121.74708448 48.21882147 -119.62517054 46.28243215 -117.1328125 43.8984375 C-115.79677739 42.56781143 -114.46363249 41.23427945 -113.1328125 39.8984375 C-112.44445312 39.21394531 -111.75609375 38.52945313 -111.046875 37.82421875 C-109.50502175 36.27292558 -108.00017556 34.68489793 -106.5078125 33.0859375 C-104.1328125 30.8984375 -104.1328125 30.8984375 -101.0703125 29.3984375 C-97.69781244 27.67630981 -96.36330768 25.92039871 -94.1328125 22.8984375 C-91.01294027 19.5385751 -88.08465971 17.18634904 -84.1328125 14.8984375 C-83.1134006 13.91823375 -82.11034894 12.92040742 -81.1328125 11.8984375 C-77.86298513 9.71855259 -77.07126644 9.69189165 -73.3203125 9.8359375 C-69.43130975 9.92023669 -65.97104397 9.55175349 -62.1328125 8.8984375 C-59.13071259 8.81408097 -56.13522314 8.83838929 -53.1328125 8.8984375 C-53.1328125 8.2384375 -53.1328125 7.5784375 -53.1328125 6.8984375 C-52.3078125 6.96804687 -51.4828125 7.03765625 -50.6328125 7.109375 C-31.91880291 7.9865942 -19.08035912 -3.72958861 0 0 Z M-49.1328125 145.8984375 C-45.4886351 148.3278891 -43.42039978 148.06023325 -39.1328125 147.8984375 C-39.1328125 147.5684375 -39.1328125 147.2384375 -39.1328125 146.8984375 C-42.4328125 146.5684375 -45.7328125 146.2384375 -49.1328125 145.8984375 Z M-85.1328125 154.8984375 C-85.1328125 155.5584375 -85.1328125 156.2184375 -85.1328125 156.8984375 C-84.1428125 157.2284375 -83.1528125 157.5584375 -82.1328125 157.8984375 C-82.4453125 159.8359375 -82.4453125 159.8359375 -83.1328125 161.8984375 C-84.1228125 162.2284375 -85.1128125 162.5584375 -86.1328125 162.8984375 C-86.7928125 162.2384375 -87.4528125 161.5784375 -88.1328125 160.8984375 C-89.48899749 162.02377855 -89.48899749 162.02377855 -89.1953125 164.9609375 C-89.1746875 165.9303125 -89.1540625 166.8996875 -89.1328125 167.8984375 C-85.61564947 167.8984375 -84.76159502 167.07398165 -82.1328125 164.8984375 C-82.1328125 167.66067028 -83.44706413 168.79125204 -85.1328125 170.8984375 C-81.72578241 169.26276155 -78.6580404 167.31555451 -75.5234375 165.21484375 C-69.27951219 161.77660383 -63.18366388 160.37691913 -56.1328125 159.7109375 C-54.97072266 159.5881543 -54.97072266 159.5881543 -53.78515625 159.46289062 C-51.90201067 159.26527658 -50.01752673 159.08048376 -48.1328125 158.8984375 C-48.7928125 156.9184375 -49.4528125 154.9384375 -50.1328125 152.8984375 C-48.1528125 153.2284375 -46.1728125 153.5584375 -44.1328125 153.8984375 C-44.6278125 151.9184375 -44.6278125 151.9184375 -45.1328125 149.8984375 C-45.9165625 150.1046875 -46.7003125 150.3109375 -47.5078125 150.5234375 C-48.8071875 150.7090625 -48.8071875 150.7090625 -50.1328125 150.8984375 C-50.7928125 150.2384375 -51.4528125 149.5784375 -52.1328125 148.8984375 C-55.96364379 148.35871103 -59.83089588 148.43508875 -63.6953125 148.3984375 C-65.28569336 148.3365625 -65.28569336 148.3365625 -66.90820312 148.2734375 C-74.36846125 148.19980139 -79.66777982 149.58063749 -85.1328125 154.8984375 Z M-28.1328125 148.8984375 C-24.1328125 149.8984375 -24.1328125 149.8984375 -24.1328125 149.8984375 Z M-87.1328125 150.8984375 C-87.1328125 151.5584375 -87.1328125 152.2184375 -87.1328125 152.8984375 C-85.1528125 152.2384375 -83.1728125 151.5784375 -81.1328125 150.8984375 C-83.62374061 149.65297345 -84.54361983 150.1216797 -87.1328125 150.8984375 Z M-89.1328125 152.8984375 C-89.7928125 153.5584375 -90.4528125 154.2184375 -91.1328125 154.8984375 C-90.8142948 157.00664547 -90.8142948 157.00664547 -90.1328125 158.8984375 C-89.1428125 156.9184375 -88.1528125 154.9384375 -87.1328125 152.8984375 C-87.7928125 152.8984375 -88.4528125 152.8984375 -89.1328125 152.8984375 Z M44.8671875 153.8984375 C44.8671875 154.2284375 44.8671875 154.5584375 44.8671875 154.8984375 C48.1671875 154.8984375 51.4671875 154.8984375 54.8671875 154.8984375 C54.8671875 154.5684375 54.8671875 154.2384375 54.8671875 153.8984375 C51.5671875 153.8984375 48.2671875 153.8984375 44.8671875 153.8984375 Z M52.8671875 157.8984375 C52.8671875 161.47419646 53.95559357 162.95139685 55.8671875 165.8984375 C54.5471875 166.2284375 53.2271875 166.5584375 51.8671875 166.8984375 C52.7953125 167.3625 52.7953125 167.3625 53.7421875 167.8359375 C55.1171875 168.5234375 56.4921875 169.2109375 57.8671875 169.8984375 C60.2072292 169.61601867 62.54223473 169.28592963 64.8671875 168.8984375 C64.8671875 169.5584375 64.8671875 170.2184375 64.8671875 170.8984375 C66.46750887 171.73913165 68.07259921 172.57075255 69.6796875 173.3984375 C70.57300781 173.8625 71.46632813 174.3265625 72.38671875 174.8046875 C74.87286776 176.10016891 74.87286776 176.10016891 77.8671875 175.8984375 C79.9921875 177.0859375 79.9921875 177.0859375 81.8671875 178.8984375 C82.6171875 181.5859375 82.6171875 181.5859375 82.8671875 183.8984375 C81.7534375 183.6509375 80.6396875 183.4034375 79.4921875 183.1484375 C74.0147214 182.41221894 69.72745834 184.57785736 64.8671875 186.8984375 C64.8671875 186.2384375 64.8671875 185.5784375 64.8671875 184.8984375 C64.2071875 184.8984375 63.5471875 184.8984375 62.8671875 184.8984375 C61.7094369 188.37168931 61.79852098 191.25911198 61.8671875 194.8984375 C59.17940948 194.9528582 56.49275538 194.99231016 53.8046875 195.0234375 C53.05251953 195.04019531 52.30035156 195.05695313 51.52539062 195.07421875 C46.59416379 195.11691335 42.4829368 194.71112448 37.8671875 192.8984375 C37.3721875 191.4134375 37.3721875 191.4134375 36.8671875 189.8984375 C34.5571875 189.8984375 32.2471875 189.8984375 29.8671875 189.8984375 C29.5371875 188.2484375 29.2071875 186.5984375 28.8671875 184.8984375 C28.2690625 185.2284375 27.6709375 185.5584375 27.0546875 185.8984375 C24.8671875 186.8984375 24.8671875 186.8984375 21.8671875 186.8984375 C22.24997001 196.06607872 24.30786325 204.13413436 30.8671875 210.8984375 C32.18466074 211.59592333 33.51632943 212.26803707 34.8671875 212.8984375 C35.5271875 213.8884375 36.1871875 214.8784375 36.8671875 215.8984375 C51.42897786 220.77979096 73.81370967 221.48667358 88.1796875 215.5234375 C97.24463823 206.66929958 103.24757227 187.69105219 104.03564453 175.23608398 C103.77451046 171.61237573 102.49447494 170.40061601 99.8671875 167.8984375 C86.49316762 158.82616422 68.49012328 157.8984375 52.8671875 157.8984375 Z M-92.1328125 158.8984375 C-93.22416062 167.57662736 -93.21948732 175.67258359 -92.0078125 184.3359375 C-91.90299561 185.16319336 -91.79817871 185.99044922 -91.69018555 186.84277344 C-90.59487628 193.88050719 -87.7065839 200.24870988 -82.1328125 204.8984375 C-80.06322812 205.65146924 -80.06322812 205.65146924 -77.73828125 206.03125 C-76.87178955 206.1972168 -76.00529785 206.36318359 -75.11254883 206.53417969 C-73.73039185 206.7763623 -73.73039185 206.7763623 -72.3203125 207.0234375 C-71.37631592 207.19520508 -70.43231934 207.36697266 -69.4597168 207.54394531 C-62.01481731 208.85040182 -54.69500037 209.67196573 -47.1328125 209.8984375 C-46.2459375 209.93839844 -45.3590625 209.97835937 -44.4453125 210.01953125 C-33.88638464 210.35064261 -33.88638464 210.35064261 -24.31640625 206.62890625 C-17.7147123 199.54458193 -14.1996326 189.71543004 -11.2578125 180.6484375 C-11.0424585 179.9994751 -10.82710449 179.3505127 -10.60522461 178.68188477 C-9.14161513 173.90560887 -8.94648274 169.8306958 -9.1328125 164.8984375 C-9.4628125 164.8984375 -9.7928125 164.8984375 -10.1328125 164.8984375 C-10.32875 166.01863281 -10.5246875 167.13882813 -10.7265625 168.29296875 C-13.03698656 180.01326547 -13.03698656 180.01326547 -16.14453125 182.5234375 C-18.3203125 183.2109375 -18.3203125 183.2109375 -22.1328125 183.8984375 C-22.6278125 185.3834375 -22.6278125 185.3834375 -23.1328125 186.8984375 C-24.2053125 187.0221875 -25.2778125 187.1459375 -26.3828125 187.2734375 C-30.0044374 187.72372834 -33.59665351 188.29187108 -37.1953125 188.8984375 C-38.73638672 189.15753906 -38.73638672 189.15753906 -40.30859375 189.421875 C-41.24058594 189.57914063 -42.17257813 189.73640625 -43.1328125 189.8984375 C-50.71808923 191.16265029 -57.57060437 191.15880552 -65.1328125 189.8984375 C-65.4628125 188.9084375 -65.7928125 187.9184375 -66.1328125 186.8984375 C-67.1228125 186.5684375 -68.1128125 186.2384375 -69.1328125 185.8984375 C-69.1328125 186.5584375 -69.1328125 187.2184375 -69.1328125 187.8984375 C-69.7928125 188.2284375 -70.4528125 188.5584375 -71.1328125 188.8984375 C-71.2153125 187.6196875 -71.2978125 186.3409375 -71.3828125 185.0234375 C-71.59151181 182.84510332 -71.59151181 182.84510332 -72.1328125 180.8984375 C-74.05346043 179.3084942 -74.05346043 179.3084942 -76.1328125 178.8984375 C-76.1328125 179.5584375 -76.1328125 180.2184375 -76.1328125 180.8984375 C-76.7928125 180.8984375 -77.4528125 180.8984375 -78.1328125 180.8984375 C-78.1328125 180.2384375 -78.1328125 179.5784375 -78.1328125 178.8984375 C-78.98746094 178.84945312 -79.84210938 178.80046875 -80.72265625 178.75 C-81.82738281 178.67523438 -82.93210937 178.60046875 -84.0703125 178.5234375 C-85.17246094 178.45382813 -86.27460938 178.38421875 -87.41015625 178.3125 C-88.30863281 178.17585938 -89.20710938 178.03921875 -90.1328125 177.8984375 C-90.4628125 177.2384375 -90.7928125 176.5784375 -91.1328125 175.8984375 C-89.4828125 175.5684375 -87.8328125 175.2384375 -86.1328125 174.8984375 C-85.8028125 173.9084375 -85.4728125 172.9184375 -85.1328125 171.8984375 C-86.7828125 172.2284375 -88.4328125 172.5584375 -90.1328125 172.8984375 C-90.4628125 168.2784375 -90.7928125 163.6584375 -91.1328125 158.8984375 C-91.4628125 158.8984375 -91.7928125 158.8984375 -92.1328125 158.8984375 Z M-68.1328125 164.8984375 C-68.1328125 165.2284375 -68.1328125 165.5584375 -68.1328125 165.8984375 C-61.8628125 165.5684375 -55.5928125 165.2384375 -49.1328125 164.8984375 C-49.1328125 163.9084375 -49.1328125 162.9184375 -49.1328125 161.8984375 C-50.26648046 160.54360715 -50.26648046 160.54360715 -53.2578125 160.7109375 C-58.66769412 160.97270597 -63.4004112 162.24829277 -68.1328125 164.8984375 Z M27.8671875 160.8984375 C26.3821875 163.3734375 26.3821875 163.3734375 24.8671875 165.8984375 C28.1671875 165.2384375 31.4671875 164.5784375 34.8671875 163.8984375 C34.8671875 163.2384375 34.8671875 162.5784375 34.8671875 161.8984375 C32.5571875 161.5684375 30.2471875 161.2384375 27.8671875 160.8984375 Z M-11.1328125 162.8984375 C-10.1328125 164.8984375 -10.1328125 164.8984375 -10.1328125 164.8984375 Z M116.8671875 170.8984375 C116.8671875 172.8784375 116.8671875 174.8584375 116.8671875 176.8984375 C117.1971875 176.8984375 117.5271875 176.8984375 117.8671875 176.8984375 C117.8671875 174.9184375 117.8671875 172.9384375 117.8671875 170.8984375 C117.5371875 170.8984375 117.2071875 170.8984375 116.8671875 170.8984375 Z M-138.1328125 171.8984375 C-139.1228125 173.3834375 -139.1228125 173.3834375 -140.1328125 174.8984375 C-139.1428125 174.5684375 -138.1528125 174.2384375 -137.1328125 173.8984375 C-137.4628125 173.2384375 -137.7928125 172.5784375 -138.1328125 171.8984375 Z M-2.921875 180.0234375 C-5.75606833 184.41186589 -7.877828 189.19655492 -10.1328125 193.8984375 C-18.53900206 210.30075858 -18.53900206 210.30075858 -28.1328125 213.8984375 C-31.94152727 216.16146309 -33.91518494 218.15594346 -35.1953125 222.5234375 C-35.4379309 225.80584284 -35.4379309 225.80584284 -33.8828125 227.7734375 C-32.01841495 229.0737943 -32.01841495 229.0737943 -29.1328125 229.8984375 C-27.03376701 229.35098631 -27.03376701 229.35098631 -24.7578125 228.4609375 C-17.89014924 226.26247848 -10.27696018 225.63567782 -3.3125 227.7578125 C-0.41106147 229.276128 -0.27662784 230.92451762 0.8671875 233.8984375 C2.81003918 234.88460885 2.81003918 234.88460885 4.8671875 234.8984375 C5.5271875 234.5684375 6.1871875 234.2384375 6.8671875 233.8984375 C7.5271875 235.2184375 8.1871875 236.5384375 8.8671875 237.8984375 C9.8571875 237.2384375 10.8471875 236.5784375 11.8671875 235.8984375 C12.0115625 235.0734375 12.1559375 234.2484375 12.3046875 233.3984375 C12.8671875 230.8984375 12.8671875 230.8984375 14.5 229.765625 C17.5199922 228.65929122 20.09089237 228.5605912 23.3046875 228.5234375 C24.41714844 228.49507812 25.52960938 228.46671875 26.67578125 228.4375 C30.50081328 228.98995261 32.02069954 230.37205632 34.8671875 232.8984375 C37.49594152 233.48332312 37.49594152 233.48332312 39.8671875 232.8984375 C42.19038619 230.03115116 42.19038619 230.03115116 41.8046875 226.5234375 C40.64744707 222.0487745 39.51283186 220.7256719 35.8671875 217.8984375 C30.18820054 214.36068638 30.18820054 214.36068638 23.8671875 212.8984375 C23.59648437 212.05667969 23.32578125 211.21492188 23.046875 210.34765625 C21.81589469 206.74846547 20.42864957 203.2311591 18.9921875 199.7109375 C16.77415273 194.24653708 14.70529733 188.75966809 12.82421875 183.16796875 C11.7738662 180.6771327 10.72030447 178.87154046 8.8671875 176.8984375 C3.95291219 176.18507496 0.52280652 175.95455195 -2.921875 180.0234375 Z M63.8671875 177.8984375 C63.8671875 178.5584375 63.8671875 179.2184375 63.8671875 179.8984375 C64.8571875 179.5684375 65.8471875 179.2384375 66.8671875 178.8984375 C65.8771875 178.5684375 64.8871875 178.2384375 63.8671875 177.8984375 Z M-42.1328125 179.8984375 C-42.1328125 181.2184375 -42.1328125 182.5384375 -42.1328125 183.8984375 C-41.4728125 183.5684375 -40.8128125 183.2384375 -40.1328125 182.8984375 C-40.4628125 181.9084375 -40.7928125 180.9184375 -41.1328125 179.8984375 C-41.4628125 179.8984375 -41.7928125 179.8984375 -42.1328125 179.8984375 Z M28.8671875 181.8984375 C28.5371875 182.5584375 28.2071875 183.2184375 27.8671875 183.8984375 C28.5271875 183.8984375 29.1871875 183.8984375 29.8671875 183.8984375 C29.5371875 183.2384375 29.2071875 182.5784375 28.8671875 181.8984375 Z M56.8671875 182.8984375 C55.8771875 183.2284375 54.8871875 183.5584375 53.8671875 183.8984375 C52.64325275 186.85627981 52.90202507 188.89570995 53.8671875 191.8984375 C55.1871875 191.2384375 56.5071875 190.5784375 57.8671875 189.8984375 C58.07800601 186.00384676 58.07800601 186.00384676 56.8671875 182.8984375 Z M13.8671875 233.8984375 C13.8671875 234.8884375 13.8671875 235.8784375 13.8671875 236.8984375 C17.1671875 236.8984375 20.4671875 236.8984375 23.8671875 236.8984375 C24.1971875 235.9084375 24.5271875 234.9184375 24.8671875 233.8984375 C21.2371875 233.8984375 17.6071875 233.8984375 13.8671875 233.8984375 Z " fill="#000000" transform="translate(218.1328125,12.1015625)"/>
<path d="M0 0 C0.99 0 1.98 0 3 0 C3 1.65 3 3.3 3 5 C2.01 5 1.02 5 0 5 C-0.33 4.01 -0.66 3.02 -1 2 C-0.67 1.34 -0.34 0.68 0 0 Z " fill="#000000" transform="translate(280,174)"/>
<path d="M0 0 C0.99 0.33 1.98 0.66 3 1 C3 2.32 3 3.64 3 5 C1.35 5 -0.3 5 -2 5 C-2 3.68 -2 2.36 -2 1 C-1.34 0.67 -0.68 0.34 0 0 Z " fill="#000000" transform="translate(141,194)"/>
<path d="M0 0 C3 2 3 2 3.77734375 4.01171875 C4.10440278 8.40119519 3.31932645 12.49375845 2.5625 16.8125 C2.34110352 18.13797852 2.34110352 18.13797852 2.11523438 19.49023438 C1.75138037 21.66162119 1.37942112 23.83128869 1 26 C-0.51953125 24.6953125 -0.51953125 24.6953125 -2 23 C-1.6875 19.875 -1.6875 19.875 -1 16 C-0.79760879 11.92425975 -0.77403143 8.06205228 -1.625 4.0625 C-1.74875 3.381875 -1.8725 2.70125 -2 2 C-1.34 1.34 -0.68 0.68 0 0 Z " fill="#000000" transform="translate(341,215)"/>
<path d="M0 0 C0.99 0 1.98 0 3 0 C4.70097842 2.60149641 5.01268885 3.84773377 4.75 7 C4.09449955 9.62200178 3.34306681 11.67201752 2 14 C1.34 14 0.68 14 0 14 C-3.24657534 6.96575342 -3.24657534 6.96575342 -2.25 3.0625 C-1 1 -1 1 0 0 Z " fill="#000000" transform="translate(82,234)"/>
<path d="M0 0 C4.0084034 2.0042017 5.41409657 3.49055963 8 7 C7.67 7.66 7.34 8.32 7 9 C6.01 9 5.02 9 4 9 C2.68 6.03 1.36 3.06 0 0 Z " fill="#000000" transform="translate(67,263)"/>
<path d="M0 0 C1.3931543 -0.0309375 1.3931543 -0.0309375 2.81445312 -0.0625 C8.14655659 -0.09286073 11.99183536 0.1762462 16.5625 3.25 C18.4375 5.9375 18.4375 5.9375 19.5625 8.25 C10.34532047 14.99553363 2.77677705 15.73950672 -8.3125 14.125 C-9.14563721 14.00833984 -9.97877441 13.89167969 -10.8371582 13.77148438 C-14.57484566 13.14316132 -16.93677684 12.62592286 -20.0078125 10.3203125 C-21.4375 8.25 -21.4375 8.25 -21.4375 5.25 C-18.4375 3.25 -18.4375 3.25 -15.4375 3.25 C-15.4375 2.59 -15.4375 1.93 -15.4375 1.25 C-10.25388011 0.09949346 -5.29029066 0.02924832 0 0 Z " fill="#000000" transform="translate(222.4375,304.75)"/>
<path d="M0 0 C0.99 0.99 1.98 1.98 3 3 C3.33 2.34 3.66 1.68 4 1 C4.66 1 5.32 1 6 1 C6.33 2.98 6.66 4.96 7 7 C9.31 7 11.62 7 14 7 C14.33 7.99 14.66 8.98 15 10 C16.093125 10.309375 17.18625 10.61875 18.3125 10.9375 C22.13166972 12.03793873 23.632268 12.87459375 26 16 C26 16.99 26 17.98 26 19 C28.97 18.67 31.94 18.34 35 18 C35 19.32 35 20.64 35 22 C35.721875 21.67 36.44375 21.34 37.1875 21 C40.15750973 19.94399654 41.88054408 19.67969872 45 20 C47.45703125 21.42578125 47.45703125 21.42578125 49.8125 23.3125 C50.60269531 23.92738281 51.39289063 24.54226563 52.20703125 25.17578125 C54 27 54 27 54 30 C54.721875 30.12375 55.44375 30.2475 56.1875 30.375 C59.00213749 31.000475 61.4199262 31.7099631 64 33 C64.33 33.99 64.66 34.98 65 36 C66.98 36.33 68.96 36.66 71 37 C71 37.66 71 38.32 71 39 C71.5775 38.81695312 72.155 38.63390625 72.75 38.4453125 C75.23103664 37.954274 76.58941141 38.1876056 79 38.875 C79.66 39.05804688 80.32 39.24109375 81 39.4296875 C82.36222893 39.81813559 83.72419825 40.207495 85.0859375 40.59765625 C87.84801074 41.17825532 90.2165041 40.46391598 93 40 C94.64565126 39.97551924 96.29182013 39.97752486 97.9375 40 C102.06951231 40.04304179 105.91072054 39.6456757 110 39 C116.54568811 38.18178899 122.49047236 37.79453192 129 39 C129.33 39.33 129.66 39.66 130 40 C137.95264305 41.26121211 143.66485648 41.21716821 151 38 C152.4540625 38.0928125 152.4540625 38.0928125 153.9375 38.1875 C159.2983402 37.85928529 163.97547098 34.12672881 167.625 30.29296875 C168.07875 29.86628906 168.5325 29.43960937 169 29 C169.763125 29.04125 170.52625 29.0825 171.3125 29.125 C175.42999962 28.93348839 177.15726607 26.84273393 180 24 C180.67349161 22.33607955 181.3409159 20.66967972 182 19 C185.94480524 15.30969832 190.26601144 15.67794457 195.37890625 15.69921875 C198.0358757 16.00411688 199.71449975 16.65021044 202 18 C202 19.98 202 21.96 202 24 C202.66 24 203.32 24 204 24 C202.22187327 29.74471714 200.39438195 34.79667813 196 39 C195.649375 39.70125 195.29875 40.4025 194.9375 41.125 C194 43 194 43 192 44 C191.2575 45.2375 191.2575 45.2375 190.5 46.5 C189 49 189 49 187 50 C186.814375 50.8971875 186.814375 50.8971875 186.625 51.8125 C185.79396276 54.72113033 184.1341092 55.8658908 182 58 C179.04801522 62.14873536 177.93930231 63.74558112 178.1875 68.875 C178.44244298 70.25303475 178.71350278 71.6281782 179 73 C180.21053455 80.16075669 179.81399373 86.9218837 179.125 94.125 C178.98771484 95.69314453 178.98771484 95.69314453 178.84765625 97.29296875 C178.2216814 104.2668576 177.39574136 111.13457917 176 118 C167.64603705 118.11612015 159.29241422 118.20482856 150.93784237 118.25906086 C147.05796126 118.28509683 143.17863442 118.32038274 139.29907227 118.37719727 C135.55131691 118.43173478 131.80409286 118.46146563 128.05597115 118.47438622 C126.6298442 118.48358747 125.20374462 118.50155581 123.77784538 118.52865028 C115.50101769 118.67959383 110.19053429 118.75472586 104 113 C102.80990636 112.28138827 101.60058018 111.59376132 100.375 110.9375 C97.27027157 109.1551559 94.77884902 107.23996947 92 105 C89.82183186 103.40104511 87.63828643 101.81700402 85.4375 100.25 C84.82616211 99.81316895 84.21482422 99.37633789 83.58496094 98.92626953 C79.69183446 96.15914572 75.74681244 93.49128343 71.75 90.875 C68.00004747 88.41625804 64.54276671 85.83759194 61.125 82.9375 C56.31743174 78.99144797 51.17448236 76.44935993 45.58203125 73.77734375 C35.53188886 68.79063188 26.28259502 62.26739749 17 56 C15.948125 55.31164062 14.89625 54.62328125 13.8125 53.9140625 C7.52317414 49.63382684 1.37479262 43.34026809 -1 36 C-1.66 36 -2.32 36 -3 36 C-3.81381795 34.06305322 -4.62600916 32.12542289 -5.4375 30.1875 C-6.11619141 28.56908203 -6.11619141 28.56908203 -6.80859375 26.91796875 C-8.66265999 22.3770262 -10.0096142 17.94169988 -10 13 C-8.6875 10 -8.6875 10 -7 8 C-6.34 8 -5.68 8 -5 8 C-5 7.34 -5 6.68 -5 6 C-4.01 6 -3.02 6 -2 6 C-1.34 4.02 -0.68 2.04 0 0 Z M172 73 C171.67 74.65 171.34 76.3 171 78 C170.34 78 169.68 78 169 78 C168.67 79.98 168.34 81.96 168 84 C171.8665284 80.777893 172.88059018 77.85077588 174 73 C173.34 73 172.68 73 172 73 Z " fill="#000000" transform="translate(108,307)"/>
<path d="M0 0 C-0.144375 1.093125 -0.28875 2.18625 -0.4375 3.3125 C-1.00213739 7.7580254 -1.37034036 12.21257821 -1.71875 16.6796875 C-2 19 -2 19 -3 21 C-3.28369251 33.30009653 0.23810539 45.99416991 4.6640625 57.38671875 C6 61 6 61 6 64 C1.38 64 -3.24 64 -8 64 C-10 60 -10 60 -10 57 C-11.32 56.67 -12.64 56.34 -14 56 C-13.34 56 -12.68 56 -12 56 C-12.15146484 55.34402832 -12.30292969 54.68805664 -12.45898438 54.01220703 C-13.14156851 51.05031695 -13.82082454 48.08767348 -14.5 45.125 C-14.73847656 44.09246094 -14.97695312 43.05992187 -15.22265625 41.99609375 C-15.44824219 41.00996094 -15.67382812 40.02382813 -15.90625 39.0078125 C-16.11572266 38.09660645 -16.32519531 37.18540039 -16.54101562 36.24658203 C-17 34 -17 34 -17 32 C-20.27286682 34.7819368 -21.96427697 38.27954067 -24 42 C-24.66 42 -25.32 42 -26 42 C-26 42.99 -26 43.98 -26 45 C-26.66 45 -27.32 45 -28 45 C-30.80937657 39.92151158 -31.43794509 36.78321875 -29.859375 31.15234375 C-28.4298926 27.57214011 -26.87778151 25.61616501 -24 23 C-20.6875 22.125 -20.6875 22.125 -18 22 C-17.67 20.02 -17.34 18.04 -17 16 C-16.01 15.67 -15.02 15.34 -14 15 C-12.65112713 12.9395525 -12.65112713 12.9395525 -11.5 10.5 C-10.28125 8.03125 -10.28125 8.03125 -9 6 C-8.01 5.67 -7.02 5.34 -6 5 C-5.67 4.01 -5.34 3.02 -5 2 C-2 0 -2 0 0 0 Z " fill="#000000" transform="translate(83,361)"/>
<path d="M0 0 C2 1.375 2 1.375 4 3 C4 3.66 4 4.32 4 5 C4.66 5 5.32 5 6 5 C7.63139937 6.92587579 9.13723225 8.84326717 10.625 10.875 C11.25535156 11.70837891 11.25535156 11.70837891 11.8984375 12.55859375 C15 16.73764712 15 16.73764712 15 19 C11.04 19 7.08 19 3 19 C2.49666458 16.39643759 1.99720622 13.79223349 1.5 11.1875 C1.35691406 10.44951172 1.21382813 9.71152344 1.06640625 8.95117188 C0.49073719 5.92205609 0 3.090804 0 0 Z " fill="#000000" transform="translate(298,406)"/>
<path d="M0 0 C-0.33 1.32 -0.66 2.64 -1 4 C-0.34 4.45375 0.32 4.9075 1 5.375 C1.66 5.91125 2.32 6.4475 3 7 C3 7.66 3 8.32 3 9 C-3.27 9 -9.54 9 -16 9 C-15.67 8.01 -15.34 7.02 -15 6 C-14.34 6 -13.68 6 -13 6 C-12.67 5.01 -12.34 4.02 -12 3 C-7.8693377 0.40632832 -4.84981776 -0.34641555 0 0 Z " fill="#000000" transform="translate(201,416)"/>
</svg>
